# xmcd CD database file
#
# Track frame offsets:
#	150
#	18667
#	37237
#	55202
#	72515
#	96955
#	113140
#	134532
#	153900
#
# Disc length: 2377 seconds
#
# Revision: 0
# Processed by: cddbd v1.5.1PL0 Copyright (c) Steve Scherf et al.
# Submitted via: CDex 1.51
#
DISCID=81094709
DTITLE=稲垣潤一 - Personally
DYEAR=1984
DGENRE=JPop
TTITLE0=悲しきダイアモンドリング
TTITLE1=オーシャン・ブルー
TTITLE2=振り向いた時そこに見える階段を数えたことがあるだろうか
TTITLE3=恋のプラネットサーカス
TTITLE4=誰がために・・・
TTITLE5=レイニー・ロンリネス
TTITLE6=DEAR JOHN
TTITLE7=ジェラシーズ・ナイト
TTITLE8=もう一度熱く
EXTD=YEAR: 1984
EXTT0=
EXTT1=
EXTT2=
EXTT3=
EXTT4=
EXTT5=
EXTT6=
EXTT7=
EXTT8=
PLAYORDER=
